<?xml version="1.0" encoding="utf-8"?>
<!-- Generator: Adobe Illustrator 16.0.2, SVG Export Plug-In . SVG Version: 6.00 Build 0)  -->
<!DOCTYPE svg PUBLIC "-//W3C//DTD SVG 1.1//EN" "http://www.w3.org/Graphics/SVG/1.1/DTD/svg11.dtd">
<svg version="1.1" id="Layer_1" xmlns="http://www.w3.org/2000/svg" xmlns:xlink="http://www.w3.org/1999/xlink" x="0px" y="0px"
	 width="1920px" height="1080px" viewBox="0 0 1920 1080" enable-background="new 0 0 1920 1080" xml:space="preserve">
<path fill="#FFDFB7" d="M1037.944,704.36L1037.944,704.36c-12.452,3.524-25.404-3.714-28.928-16.167l-18.591-65.709
	c-3.525-12.451,3.714-25.404,16.167-28.927l0,0c12.451-3.523,25.404,3.715,28.927,16.168l18.593,65.709
	C1057.635,687.886,1050.396,700.837,1037.944,704.36z"/>
<path fill="#FFE5C5" d="M1011.409,703.807L1011.409,703.807c-9.239-9.062-9.384-23.898-0.322-33.137l47.817-48.755
	c9.061-9.239,23.898-9.383,33.137-0.321l0,0c9.239,9.062,9.384,23.898,0.322,33.138l-47.817,48.753
	C1035.484,712.725,1020.648,712.868,1011.409,703.807z"/>
<g>
	<circle fill="#FF9C9C" cx="1089.474" cy="621.557" r="20.532"/>
	<path fill="#FF9C9C" d="M1075.723,618.595L1075.723,618.595c-2.861,0.736-5.779-0.985-6.517-3.847l-1.82-7.065
		c-0.737-2.861,0.985-5.779,3.848-6.516l0,0c2.86-0.738,5.779,0.985,6.516,3.848l1.819,7.063
		C1080.307,614.94,1078.583,617.856,1075.723,618.595z"/>
	<path fill="#FF9C9C" d="M1096.316,594.27l-7.275,18.416c-1.127,2.854-4.353,4.253-7.205,3.126l0,0
		c-2.854-1.127-4.253-4.354-3.126-7.206l7.274-18.418c1.128-2.852,4.354-4.251,7.207-3.124l0,0
		C1096.044,588.189,1097.443,591.416,1096.316,594.27z"/>
	<path fill="#FF9C9C" d="M1109.137,598.129l-8.785,17.745c-1.36,2.75-4.692,3.875-7.441,2.516l0,0
		c-2.75-1.361-3.875-4.693-2.514-7.443l8.785-17.746c1.361-2.748,4.693-3.874,7.441-2.514l0,0
		C1109.373,592.048,1110.498,595.38,1109.137,598.129z"/>
	<path fill="#FF9C9C" d="M1118.675,608.01l-12.27,15.544c-1.9,2.407-5.393,2.819-7.8,0.918l0,0c-2.407-1.9-2.819-5.394-0.919-7.8
		l12.27-15.543c1.901-2.408,5.392-2.819,7.801-0.919l0,0C1120.164,602.111,1120.574,605.603,1118.675,608.01z"/>
</g>
<g>
	<path fill="#FF8383" d="M987.218,570.52l-7.967-0.313c-5.354-0.21-9.522-4.72-9.313-10.074l1.665-42.338l27.354,1.076
		l-1.666,42.337C997.081,566.562,992.571,570.73,987.218,570.52z"/>
	<path fill="#FF8383" d="M998.958,517.381l-27.354-1.075l-0.423,10.743c-0.414,10.529,8.156,19.769,18.665,19.004
		c0.654-0.047,1.311-0.127,1.965-0.246c2.194-0.392,4.238-1.169,6.117-2.235L998.958,517.381z"/>
</g>
<path fill="#BFA789" d="M1012.693,475.478c7.065,12.848-1.112,29.34-18.269,36.835c-17.155,7.496-36.789,3.158-43.855-9.688
	c-7.066-12.846,1.114-29.339,18.267-36.835C985.993,458.294,1005.627,462.631,1012.693,475.478z"/>
<path fill="#BFA789" d="M1031.655,479.355c4.688,10.084-4.423,22.021-20.35,26.665c-15.927,4.642-32.637,0.23-37.325-9.853
	c-4.688-10.086,4.423-22.023,20.349-26.666C1010.256,464.859,1026.968,469.27,1031.655,479.355z"/>
<path fill="#BFA789" d="M1005.536,454.181c9.435,5.887,8.323,20.863-2.481,33.451c-10.807,12.587-27.215,18.019-36.649,12.132
	c-9.434-5.886-8.323-20.862,2.483-33.45C979.692,453.727,996.1,448.294,1005.536,454.181z"/>
<path fill="#FF9C9C" d="M1014.804,510.599c2.692,15.088-5.203,29.121-17.638,31.339l0,0c-12.43,2.22-24.69-8.216-27.384-23.306
	l-2.118-11.875c-2.693-15.088,5.201-29.122,17.632-31.34l0,0c12.433-2.219,24.696,8.217,27.389,23.306L1014.804,510.599z"/>
<path fill="#BFA789" d="M988.248,473.625c-6.875-6.223-18.843-3.213-26.729,6.724c-7.885,9.938-8.705,23.037-1.828,29.26
	c6.875,6.224,18.843,3.214,26.728-6.723C994.306,492.951,995.125,479.849,988.248,473.625z"/>
<g>
	<g>
		<path fill="#86294E" d="M992.783,507.246c-0.396,0-0.787-0.188-1.029-0.536c-0.389-0.569-0.251-1.343,0.314-1.734
			c0.166-0.111,4.131-2.803,8.335-0.355c0.596,0.349,0.798,1.116,0.45,1.711c-0.345,0.597-1.106,0.799-1.709,0.449
			c-2.816-1.642-5.539,0.171-5.655,0.249C993.273,507.176,993.027,507.246,992.783,507.246z"/>
	</g>
	<g>
		<path fill="#86294E" d="M1014.353,507.25c-0.244,0-0.49-0.07-0.705-0.22l0,0c-0.118-0.078-2.84-1.891-5.657-0.249
			c-0.598,0.35-1.358,0.147-1.709-0.449c-0.348-0.596-0.146-1.362,0.45-1.711c4.211-2.462,8.169,0.24,8.336,0.355
			c0.567,0.393,0.706,1.172,0.312,1.741C1015.138,507.064,1014.748,507.25,1014.353,507.25z"/>
	</g>
	<g>
		<circle fill="#86294E" cx="997.122" cy="510.558" r="1.304"/>
	</g>
	<circle fill="#86294E" cx="1009.629" cy="511.05" r="1.304"/>
</g>
<g>
	<g>
		<path fill="#FFE5C5" d="M1013.974,520.176c-0.137,0-0.275-0.004-0.416-0.011c-2.734-0.104-5.269-1.272-7.13-3.286
			c-1.856-2.011-2.823-4.63-2.715-7.367c0.108-2.738,1.276-5.269,3.286-7.128c2.015-1.858,4.61-2.841,7.368-2.716
			c2.736,0.104,5.27,1.273,7.129,3.285c1.859,2.011,2.826,4.627,2.719,7.367c-0.109,2.738-1.277,5.27-3.29,7.128
			C1019.015,519.217,1016.56,520.176,1013.974,520.176z M1013.951,501.392c-2.149,0-4.188,0.798-5.773,2.267
			c-1.672,1.543-2.644,3.646-2.732,5.923c-0.092,2.274,0.711,4.45,2.258,6.12c1.545,1.674,3.649,2.643,5.923,2.734
			c2.294,0.039,4.449-0.711,6.124-2.259c1.67-1.544,2.642-3.647,2.731-5.924c0.089-2.277-0.715-4.45-2.258-6.124
			c-1.548-1.67-3.65-2.639-5.926-2.729C1014.182,501.394,1014.067,501.392,1013.951,501.392z"/>
	</g>
	<g>
		<path fill="#FFE5C5" d="M991.936,520.569c-0.154,0-0.309-0.002-0.464-0.011c-6.347-0.251-11.307-5.617-11.058-11.959
			c0.121-3.077,1.432-5.918,3.691-8.007c2.257-2.092,5.197-3.197,8.271-3.051c3.074,0.118,5.917,1.43,8.007,3.689
			c2.089,2.26,3.171,5.196,3.051,8.272c-0.123,3.075-1.434,5.918-3.692,8.006C997.598,519.492,994.84,520.569,991.936,520.569z
			 M991.912,499.479c-2.413,0-4.703,0.893-6.486,2.542c-1.877,1.736-2.966,4.098-3.066,6.654l0,0
			c-0.207,5.271,3.914,9.728,9.188,9.938c2.528,0.122,4.993-0.799,6.871-2.536s2.967-4.097,3.069-6.653
			c0.101-2.556-0.801-4.997-2.536-6.873c-1.734-1.876-4.098-2.969-6.652-3.065C992.17,499.479,992.041,499.479,991.912,499.479z"/>
	</g>
	<g>
		<path fill="#FFE5C5" d="M1001.456,510.848l4.236,0.167c0.492,0.02,0.907-0.364,0.925-0.857l0,0
			c0.021-0.492-0.361-0.907-0.854-0.927l-4.238-0.166c-0.492-0.02-0.907,0.365-0.926,0.857l0,0
			C1000.579,510.414,1000.963,510.83,1001.456,510.848z"/>
	</g>
</g>
<g>
	<path fill="#86294E" d="M1009.939,516.854c-0.12,1.489-1.85,2.846-3.86,3.03c-2.011,0.185-3.544-0.872-3.423-2.36
		c0.12-1.489,1.849-2.846,3.86-3.031C1008.528,514.309,1010.061,515.366,1009.939,516.854z"/>
</g>
<g>
	<path fill="#86294E" d="M1009.086,524.861c-0.135,3.455-3.279,6.136-7.021,5.988c-3.742-0.146-5.901-3.854-5.767-7.308
		C1000.691,523.149,1004.958,523.555,1009.086,524.861z"/>
	<path fill="#FFD2D4" d="M1002.606,527.024c-2.958-0.344-4.783-1.358-4.956-3.581c3.689-0.196,7.291,0.178,10.792,1.199
		C1007.938,526.646,1005.505,527.359,1002.606,527.024z"/>
</g>
<g>
	<g>
		<path fill="#201028" d="M993.861,532.229L993.861,532.229l-7.354-0.007c-2.968,0-5.813-1.094-8.018-3.086l-4.604-4.152
			c-0.366-0.332-0.396-0.896-0.065-1.259c0.331-0.369,0.896-0.395,1.261-0.066l4.604,4.152c1.875,1.694,4.298,2.626,6.822,2.626
			l7.354,0.006c0.494,0,0.893,0.401,0.893,0.893C994.754,531.833,994.355,532.229,993.861,532.229z"/>
	</g>
	<g>
		<path fill="#FFD2D4" d="M993.861,533.122h-0.002l-2.98-0.002c-0.988,0-1.786-0.803-1.785-1.791
			c0.004-0.982,0.802-1.781,1.786-1.781h0.002l2.981,0.003c0.987,0,1.786,0.803,1.783,1.79
			C995.646,532.324,994.848,533.122,993.861,533.122z"/>
	</g>
</g>
<circle fill="#FFDFB7" cx="969.909" cy="515.729" r="14.952"/>
<ellipse transform="matrix(0.9992 0.0393 -0.0393 0.9992 20.9946 -37.6027)" fill="#FFECD4" cx="967.722" cy="515.643" rx="11.67" ry="12.764"/>
<ellipse transform="matrix(0.9992 0.0393 -0.0393 0.9992 21.0165 -37.563)" fill="#FFF9F1" cx="965.536" cy="515.557" rx="4.011" ry="5.171"/>
<g>
	<path fill="#FFECD4" d="M1006.033,724.473l-71.523,2.016c-11.923-0.47-21.208-10.515-20.74-22.44l4.518-119.691
		c0.246-6.257,4.384-11.688,10.35-13.589l53.322-16.979l42.621,20.429c5.354,2.564,8.669,8.067,8.435,13.998l-4.543,115.517
		C1028.004,715.657,1017.957,724.942,1006.033,724.473z"/>
	<path fill="#FFECD4" d="M1033.015,588.215c0.246,12.481,0.102,24.947-0.103,37.41c-0.164,12.464-0.608,24.918-1.053,37.371
		c-0.53,12.451-1.066,24.9-1.88,37.339c-0.184,3.023-0.336,6.43-1.477,9.524c-1.081,3.093-2.812,5.952-5.101,8.252
		c-4.591,4.57-11.127,7.042-17.369,6.361c6.248-0.135,12.23-2.934,16.083-7.547c1.978-2.246,3.421-4.924,4.239-7.759
		c0.875-2.843,0.852-5.757,0.879-8.939c0.166-12.466,0.61-24.919,1.061-37.373c0.533-12.448,1.069-24.897,1.885-37.338
		C1030.955,613.077,1031.79,600.639,1033.015,588.215z"/>
	<path fill="#FFECD4" d="M1001.533,576.432l-38.602-2.488l1.479-22.946c0.185-2.853,2.646-5.015,5.498-4.83l28.271,1.822
		c2.853,0.185,5.017,2.646,4.833,5.498L1001.533,576.432z"/>
</g>
<path fill="#FFECD4" d="M886.533,689.389L886.533,689.389c-11.953-4.964-17.617-18.676-12.653-30.627l26.191-63.067
	c4.964-11.951,18.677-17.617,30.629-12.653l0,0c11.951,4.965,17.616,18.677,12.652,30.629l-26.192,63.066
	C912.197,688.688,898.485,694.352,886.533,689.389z"/>
<path fill="#FFDFB7" d="M930.7,583.041c4.184,1.355,7.999,4.045,10.824,7.604c2.77,3.592,4.54,8.039,4.926,12.656
	c0.619,4.588-0.856,9.478-2.542,13.425l-4.946,12.169c-3.397,8.072-6.799,16.142-10.456,24.104l-5.498,11.942
	c-1.954,3.93-3.794,7.905-5.846,11.793c1.304-4.198,2.823-8.309,4.229-12.466l4.577-12.322c3.061-8.212,6.376-16.317,9.698-24.42
	l5.128-12.094c0.876-2.065,1.783-3.892,2.218-5.885c0.485-1.98,0.77-4.03,0.708-6.092C943.611,595.18,938.546,587.043,930.7,583.041
	z"/>
<g>
	<g>
		<path fill="#86294E" d="M995.594,656.337l-11.932-0.77c-4.473-0.289-7.877-4.163-7.588-8.635l0.347-5.379
			c0.289-4.473,4.161-7.878,8.635-7.589l11.931,0.77L995.594,656.337z M984.71,639.31c-1.525-0.098-2.846,1.064-2.945,2.589
			l-0.347,5.378c-0.098,1.524,1.063,2.847,2.589,2.946l6.587,0.424l0.704-10.912L984.71,639.31z"/>
	</g>
	<g>
		<path fill="#D15E79" d="M1007.197,673.498l-10.319-0.667c-6.268-0.403-11.02-5.813-10.616-12.079l2.14-33.176
			c0.239-3.701,33.254-1.572,33.015,2.129l-2.14,33.178C1018.873,669.149,1013.464,673.902,1007.197,673.498z"/>
		
			<ellipse transform="matrix(0.9979 0.0644 -0.0644 0.9979 42.6197 -63.3603)" fill="#86294E" cx="1004.592" cy="629.73" rx="13.563" ry="2.417"/>
	</g>
</g>
<path fill="#FFECD4" d="M873.547,668.32L873.547,668.32c0.205-12.94,10.86-23.264,23.8-23.061l68.282,1.077
	c12.938,0.205,23.263,10.859,23.058,23.801l0,0c-0.203,12.939-10.858,23.264-23.799,23.06l-68.279-1.079
	C883.667,691.915,873.343,681.26,873.547,668.32z"/>
<path fill="#FFDFB7" d="M897.347,645.26c8.769-0.598,17.529-0.806,26.291-0.951c8.76-0.188,17.518-0.097,26.274-0.004l13.132,0.302
	c4.292,0.028,9.368,0.614,13.33,3.011c4.082,2.193,7.456,5.591,9.651,9.56c2.139,4.013,3.087,8.581,2.66,12.962
	c-0.55-8.792-5.999-16.674-13.545-20.068c-1.868-0.874-3.86-1.434-5.868-1.776c-2.003-0.393-4.037-0.288-6.281-0.307l-13.137-0.114
	c-8.754-0.182-17.51-0.368-26.261-0.831C914.843,646.617,906.091,646.136,897.347,645.26z"/>
<g>
	<circle fill="#FF9C9C" cx="991.811" cy="665.016" r="20.531"/>
	<path fill="#FF9C9C" d="M981.193,655.176L981.193,655.176c-2.563-0.886-3.92-3.683-3.035-6.245l2.189-6.327
		c0.886-2.563,3.684-3.92,6.245-3.033l0,0c2.563,0.887,3.922,3.683,3.034,6.245l-2.188,6.326
		C986.552,654.705,983.756,656.063,981.193,655.176z"/>
	<path fill="#FF9C9C" d="M1020.507,657.863l-18.223,1.694c-2.821,0.263-5.322-1.813-5.585-4.636l0,0
		c-0.264-2.82,1.812-5.322,4.635-5.586l18.221-1.694c2.823-0.263,5.324,1.812,5.587,4.635l0,0
		C1025.403,655.099,1023.329,657.6,1020.507,657.863z"/>
	<path fill="#FF9C9C" d="M1016.646,674.617l-18.263-1.178c-2.828-0.182-4.975-2.623-4.792-5.453l0,0
		c0.184-2.828,2.625-4.975,5.453-4.791l18.262,1.178c2.828,0.183,4.976,2.623,4.792,5.453l0,0
		C1021.916,672.653,1019.475,674.8,1016.646,674.617z"/>
</g>
<g>
	<g>
		<path fill="#FCD69E" d="M1202.347,612.357c-0.548,0-1.095-0.209-1.513-0.627c-0.837-0.835-0.837-2.191,0-3.028l20.444-20.447
			c0.83-0.835,2.188-0.835,3.025,0c0.837,0.834,0.837,2.19,0,3.027l-20.443,20.448
			C1203.446,612.148,1202.895,612.357,1202.347,612.357z"/>
	</g>
	<g>
		<g>
			<path fill="#FCD69E" d="M1187.789,599.811c-1.182,0-2.142-0.958-2.142-2.141v-28.912c0-1.183,0.96-2.142,2.142-2.142
				s2.142,0.959,2.142,2.142v28.912C1189.931,598.853,1188.971,599.811,1187.789,599.811z"/>
		</g>
		<g>
			<path fill="#FCD69E" d="M1243.808,626.916h-28.917c-1.183,0-2.142-0.959-2.142-2.142c0-1.182,0.959-2.141,2.142-2.141h28.917
				c1.183,0,2.14,0.959,2.14,2.141C1245.947,625.957,1244.99,626.916,1243.808,626.916z"/>
		</g>
	</g>
</g>
<path fill="#FCD69E" d="M986.989,716.855h176.914c4.935,0,6.454-3.999,6.454-8.936l0,0H978.051l0,0
	C978.051,712.856,982.054,716.855,986.989,716.855z"/>
<path fill="#FCD69E" d="M976.728,707.92h62.711c0,4.937-4.543,8.936-10.148,8.936h-41.097c-0.056,0-11.677-0.002-11.732-0.002
	C970.681,716.771,970.945,707.92,976.728,707.92z"/>
<path fill="#FDE6C5" d="M1043.352,710.52h127.006c3.771,0,7.015-2.686,7.714-6.389l17.118-73.455c0.922-4.839-2.789-9.32-7.715-9.32
	h-127.002c-3.778,0-7.015,2.686-7.72,6.391l-17.116,73.453C1034.719,706.038,1038.428,710.52,1043.352,710.52z"/>
<path fill="#FCD69E" d="M1052.753,627.746c0.382-2.038,1.546-3.763,3.133-4.908c2.375,1.716,3.734,4.691,3.132,7.838l-17.113,73.455
	c-0.389,2.038-1.541,3.758-3.13,4.902c-2.373-1.712-3.734-4.693-3.138-7.834L1052.753,627.746z"/>
<g>
	<path fill="#FFFFFF" d="M1132.633,675.308h-20.83c-4.271,0-7.736-3.464-7.736-7.736l0,0c0-4.271,3.465-7.736,7.736-7.736h20.83
		c4.271,0,7.735,3.465,7.735,7.736l0,0C1140.368,671.844,1136.904,675.308,1132.633,675.308z"/>
</g>
<g>
	<path fill="#BDA077" d="M995.662,710.382h-6.249c-1.231,0-2.231-0.998-2.231-2.231l0,0c0-1.232,1-2.232,2.231-2.232h6.249
		c1.232,0,2.232,1,2.232,2.232l0,0C997.895,709.384,996.895,710.382,995.662,710.382z"/>
	<path fill="#BDA077" d="M1007.863,710.382h-6.25c-1.232,0-2.232-0.998-2.232-2.231l0,0c0-1.232,1-2.232,2.232-2.232h6.25
		c1.23,0,2.23,1,2.23,2.232l0,0C1010.094,709.384,1009.094,710.382,1007.863,710.382z"/>
	<path fill="#BDA077" d="M1020.062,710.382h-6.248c-1.232,0-2.231-0.998-2.231-2.231l0,0c0-1.232,0.999-2.232,2.231-2.232h6.248
		c1.233,0,2.231,1,2.231,2.232l0,0C1022.293,709.384,1021.295,710.382,1020.062,710.382z"/>
	<path fill="#BDA077" d="M1032.261,710.382h-6.247c-1.233,0-2.232-0.998-2.232-2.231l0,0c0-1.232,0.999-2.232,2.232-2.232h6.247
		c1.233,0,2.232,1,2.232,2.232l0,0C1034.493,709.384,1033.494,710.382,1032.261,710.382z"/>
</g>
<path fill="#1B2A67" d="M1265.044,729.111H730.637c-2.96,0-5.357-2.397-5.357-5.355l0,0c0-2.958,2.397-5.356,5.357-5.356h534.407
	c2.958,0,5.355,2.398,5.355,5.356l0,0C1270.399,726.714,1268.002,729.111,1265.044,729.111z"/>
<path fill="none" stroke="#1B2A67" stroke-width="0.8269" stroke-linecap="round" stroke-miterlimit="10" d="M810.631,683.44
	c0,0-3.934-29.551-11.056-36.815"/>
<g>
	<path fill="#FFD2D4" d="M800.726,629.042c1.904,6.297,1.516,11.985-0.867,12.706c-2.383,0.72-5.857-3.802-7.759-10.1
		c-0.018-0.064-0.037-0.127-0.056-0.189c-1.612-5.611,6.861-8.17,8.625-2.605C800.688,628.916,800.707,628.979,800.726,629.042z"/>
	<g>
		<path fill="#FFD2D4" d="M812.027,643.115c-6.297,1.903-11.988,1.514-12.707-0.868s3.803-5.856,10.1-7.758
			c0.063-0.021,0.125-0.038,0.189-0.056c5.61-1.613,8.17,6.86,2.605,8.625C812.152,643.076,812.09,643.097,812.027,643.115z"/>
		<path fill="#FFD2D4" d="M790.482,649.625c6.298-1.902,10.819-5.377,10.1-7.76c-0.719-2.382-6.408-2.77-12.706-0.866
			c-0.064,0.018-0.126,0.036-0.188,0.057c-5.565,1.765-3.006,10.237,2.605,8.625C790.356,649.662,790.419,649.643,790.482,649.625z"
			/>
	</g>
	<g>
		<path fill="#FFD2D4" d="M801.083,656.782c1.77-6.336,1.263-12.015-1.134-12.685c-2.397-0.669-5.775,3.924-7.546,10.26
			c-0.017,0.063-0.034,0.127-0.052,0.191c-1.493,5.643,7.03,8.024,8.678,2.423C801.047,656.909,801.066,656.847,801.083,656.782z"/>
		<path fill="#FFD2D4" d="M807.163,654.946c-4.982-4.295-7.704-9.306-6.08-11.19c1.625-1.886,6.982,0.069,11.965,4.365
			c0.049,0.043,0.099,0.086,0.148,0.13c4.369,3.87-1.411,10.574-5.883,6.823C807.262,655.032,807.213,654.989,807.163,654.946z"/>
	</g>
	<circle fill="#D15E79" cx="799.878" cy="643.464" r="3.08"/>
</g>
<g>
	<path fill="#FDE6C5" d="M799.016,664.444c8.183,6.447,12.839,14.182,10.401,17.274c-2.439,3.097-11.049,0.38-19.231-6.066
		c-8.182-6.445-10.399-17.275-10.399-17.275S790.834,657.998,799.016,664.444z"/>
	<path fill="#FDE6C5" d="M827.753,674.203c-8.636,8.109-18.124,12.036-21.193,8.77c-3.068-3.267,1.446-12.49,10.083-20.602
		s21.192-8.771,21.192-8.771S836.39,666.092,827.753,674.203z"/>
</g>
<g>
	<polygon fill="#BFA789" points="821.403,718.157 793.145,718.157 788.198,682.604 826.349,682.604 	"/>
	<path fill="#BFA789" d="M827.828,691.721H786.72c-1.109,0-2.007-0.899-2.007-2.008v-9.202c0-1.109,0.898-2.008,2.007-2.008h41.107
		c1.109,0,2.007,0.898,2.007,2.008v9.202C829.835,690.821,828.937,691.721,827.828,691.721z"/>
</g>
<polygon fill="#FCD69E" points="893.49,416.858 907.503,431.888 1014.319,387.334 "/>
<polygon fill="#FEEED8" points="898.473,367.266 887.923,383.182 895.056,398.779 879.054,401.5 864.914,432.545 1017.747,386.297 
	"/>
<polygon fill="#FCD69E" points="895.056,398.779 887.923,383.182 970.704,387.053 "/>
<g>
	<path fill="#FCD69E" d="M887.01,553.029c-1.174,0-2.353-0.006-3.528-0.02c-1.186-0.015-2.132-0.984-2.117-2.166
		c0.013-1.182,1.036-2.256,2.165-2.115c5.549,0.062,11.054-0.026,17.097-0.281c0.031,0,0.063,0,0.09,0
		c1.144,0,2.093,0.9,2.141,2.052c0.049,1.181-0.867,2.183-2.05,2.232C895.969,552.933,891.453,553.029,887.01,553.029z
		 M866.316,552.187c-0.064,0-0.126,0-0.189-0.007c-5.899-0.506-11.706-1.263-17.253-2.249c-1.165-0.206-1.939-1.318-1.734-2.486
		c0.21-1.161,1.326-1.903,2.487-1.733c5.419,0.966,11.096,1.705,16.87,2.2c1.179,0.103,2.05,1.138,1.95,2.32
		C868.352,551.347,867.413,552.187,866.316,552.187z M832.509,546.004c-0.206,0-0.418-0.031-0.628-0.098
		c-5.635-1.726-11.13-3.836-16.329-6.276c-1.071-0.503-1.531-1.779-1.029-2.85c0.502-1.077,1.789-1.531,2.85-1.029
		c5.018,2.355,10.322,4.392,15.765,6.061c1.129,0.346,1.767,1.542,1.418,2.675C834.273,545.407,833.425,546.004,832.509,546.004z
		 M801.482,531.39c-0.408,0-0.819-0.115-1.187-0.36c-4.853-3.239-9.491-6.879-13.783-10.827c-0.872-0.798-0.928-2.154-0.126-3.026
		s2.162-0.925,3.027-0.126c4.128,3.794,8.591,7.299,13.26,10.415c0.984,0.655,1.248,1.988,0.593,2.971
		C802.856,531.056,802.175,531.39,801.482,531.39z M776.236,508.191c-0.627,0-1.252-0.275-1.678-0.805
		c-3.64-4.576-6.949-9.457-9.833-14.517c-0.586-1.024-0.226-2.335,0.802-2.921c1.029-0.575,2.337-0.223,2.923,0.803
		c2.775,4.863,5.958,9.564,9.463,13.964c0.735,0.927,0.582,2.273-0.342,3.013C777.177,508.041,776.708,508.191,776.236,508.191z
		 M759.269,478.392c-0.865,0-1.681-0.53-2.005-1.388c-2.093-5.554-3.714-11.235-4.816-16.883c-0.227-1.161,0.53-2.288,1.691-2.515
		c1.172-0.24,2.288,0.531,2.515,1.691c1.056,5.417,2.61,10.866,4.619,16.194c0.418,1.108-0.143,2.343-1.248,2.762
		C759.774,478.347,759.52,478.392,759.269,478.392z M752.434,444.777c-1.119,0-2.061-0.872-2.133-2.005
		c-0.224-3.5-0.335-7.187-0.335-10.949v-0.868c0.007-1.863,0.042-3.727,0.102-5.596c0.038-1.158,0.986-2.072,2.141-2.072
		c0.021,0,0.045,0,0.069,0c1.181,0.039,2.11,1.03,2.072,2.211c-0.06,1.827-0.095,3.65-0.102,5.464v0.861
		c0,3.675,0.111,7.267,0.327,10.677c0.078,1.182-0.82,2.201-2.001,2.274C752.528,444.777,752.483,444.777,752.434,444.777z"/>
</g>
<g>
	<path fill="#FCD69E" d="M770.447,410.807c-3.27,0-6.492-0.038-9.655-0.118c-1.182-0.028-2.115-1.012-2.085-2.197
		c0.028-1.165,0.983-2.085,2.141-2.085c0.017,0,0.035,0,0.056,0c5.531,0.139,11.231,0.153,17.113,0.045
		c1.332-0.069,2.163,0.917,2.184,2.1c0.024,1.186-0.918,2.162-2.1,2.183C775.518,410.783,772.966,410.807,770.447,410.807z
		 M795.258,410.089c-1.127,0-2.072-0.882-2.133-2.022c-0.067-1.178,0.835-2.19,2.018-2.256c5.541-0.313,11.294-0.729,17.103-1.241
		c1.148-0.122,2.221,0.767,2.323,1.945c0.105,1.179-0.768,2.218-1.946,2.323c-5.854,0.516-11.652,0.938-17.242,1.248
		C795.342,410.089,795.3,410.089,795.258,410.089z M743.661,409.817c-0.055,0-0.111,0-0.171-0.003
		c-5.962-0.464-11.764-1.099-17.246-1.883c-1.172-0.167-1.984-1.252-1.817-2.424c0.167-1.168,1.276-1.959,2.424-1.816
		c5.392,0.771,11.103,1.395,16.974,1.848c1.179,0.095,2.061,1.123,1.97,2.305C745.708,408.966,744.767,409.817,743.661,409.817z
		 M829.552,407.08c-1.071,0-1.998-0.802-2.124-1.893c-0.14-1.175,0.704-2.239,1.879-2.375c5.566-0.653,11.239-1.388,17.017-2.211
		c1.175-0.185,2.26,0.648,2.424,1.817c0.167,1.172-0.646,2.256-1.816,2.423c-5.821,0.831-11.528,1.573-17.128,2.225
		C829.719,407.077,829.636,407.08,829.552,407.08z M709.611,404.883c-0.158,0-0.314-0.017-0.471-0.052
		c-4.143-0.931-8.181-1.977-11.999-3.114c-1.625-0.485-3.222-0.99-4.794-1.51c-1.123-0.37-1.732-1.583-1.36-2.706
		c0.37-1.123,1.583-1.744,2.707-1.36c1.531,0.505,3.086,0.998,4.669,1.468c3.728,1.108,7.668,2.13,11.712,3.037
		c1.157,0.262,1.883,1.405,1.625,2.559C711.474,404.203,710.591,404.883,709.611,404.883z M677.07,393.878
		c-0.313,0-0.634-0.069-0.934-0.216c-5.486-2.66-10.573-5.66-15.125-8.913c-0.96-0.69-1.185-2.026-0.498-2.988
		c0.684-0.962,2.022-1.192,2.988-0.499c4.358,3.114,9.236,5.991,14.502,8.543c1.063,0.516,1.51,1.8,0.994,2.863
		C678.63,393.431,677.865,393.878,677.07,393.878z M750.82,391.964c-1.183,0-2.141-0.959-2.141-2.142v-0.76
		c0-5.402-0.216-10.89-0.645-16.315c-0.091-1.179,0.79-2.211,1.97-2.305c1.136-0.104,2.206,0.788,2.303,1.97
		c0.433,5.534,0.653,11.138,0.653,16.651v0.76C752.961,391.005,752.001,391.964,750.82,391.964z M649.374,373.797
		c-0.579,0-1.161-0.233-1.583-0.697c-4.014-4.397-7.48-9.23-10.297-14.363c-0.567-1.039-0.188-2.339,0.847-2.912
		c1.046-0.564,2.344-0.178,2.913,0.847c2.649,4.837,5.917,9.391,9.703,13.54c0.798,0.873,0.736,2.229-0.139,3.028
		C650.405,373.612,649.89,373.797,649.374,373.797z M748.061,357.61c-1.025,0-1.927-0.735-2.109-1.778
		c-0.994-5.827-2.266-11.396-3.784-16.556c-0.333-1.135,0.314-2.326,1.451-2.658c1.14-0.349,2.326,0.313,2.657,1.451
		c1.566,5.318,2.877,11.05,3.902,17.037c0.199,1.168-0.586,2.274-1.75,2.477C748.303,357.604,748.184,357.61,748.061,357.61z
		 M632.947,343.924c-0.943,0-1.804-0.625-2.065-1.572c-0.264-0.962-0.513-1.933-0.746-2.912c-0.759-3.222-1.144-6.416-1.144-9.495
		c0-1.849,0.136-3.697,0.411-5.496c0.179-1.172,1.286-1.981,2.438-1.796c1.171,0.174,1.974,1.269,1.796,2.437
		c-0.24,1.587-0.363,3.219-0.363,4.854c0,2.748,0.35,5.611,1.033,8.508c0.22,0.927,0.453,1.848,0.704,2.754
		c0.318,1.144-0.352,2.322-1.493,2.636C633.326,343.896,633.135,343.924,632.947,343.924z M738.131,324.71
		c-0.798,0-1.562-0.45-1.931-1.217c-2.56-5.342-5.517-10.112-8.791-14.177c-0.74-0.921-0.596-2.271,0.327-3.013
		c0.91-0.735,2.26-0.604,3.014,0.328c3.476,4.32,6.611,9.373,9.313,15.008c0.512,1.066,0.063,2.346-1.004,2.859
		C738.758,324.641,738.44,324.71,738.131,324.71z M638.265,311.282c-0.454,0-0.91-0.139-1.298-0.436
		c-0.94-0.718-1.122-2.06-0.408-3.002c3.438-4.515,7.951-8.505,13.414-11.852c1.016-0.613,2.333-0.296,2.947,0.708
		c0.617,1.007,0.3,2.329-0.708,2.946c-5.012,3.069-9.13,6.702-12.243,10.792C639.547,310.993,638.909,311.282,638.265,311.282z
		 M716.463,298.545c-0.401,0-0.809-0.112-1.172-0.349c-4.54-2.978-9.593-5.165-15.015-6.5c-1.148-0.285-1.852-1.443-1.57-2.594
		c0.283-1.144,1.448-1.845,2.595-1.57c5.893,1.454,11.392,3.836,16.34,7.079c0.99,0.649,1.265,1.978,0.618,2.967
		C717.847,298.206,717.164,298.545,716.463,298.545z M666.829,293.084c-0.927,0-1.778-0.607-2.054-1.538
		c-0.333-1.137,0.314-2.326,1.448-2.66c5.4-1.594,11.067-2.616,16.842-3.045l0.645-0.021c1.057,0.052,2.163,0.917,2.183,2.099
		c0.025,1.183-0.917,2.163-2.099,2.183l-0.467,0.017c-5.417,0.401-10.782,1.367-15.89,2.874
		C667.233,293.052,667.028,293.084,666.829,293.084z"/>
</g>
<path fill="#FFDFB7" d="M1182.304,307.67h114.513c14.315,0,25.919,11.604,25.919,25.918v59.063c0,14.315-11.604,25.92-25.919,25.92
	h-74.881l-26.935,23.764v-23.764h-12.697c-14.314,0-25.919-11.604-25.919-25.92v-59.063
	C1156.385,319.274,1167.989,307.67,1182.304,307.67z"/>
<g>
	<g>
		<path fill="#FFFFFF" d="M1198.961,344.223h81.198c1.794,0,3.247-1.456,3.247-3.249c0-1.794-1.453-3.249-3.247-3.249h-81.198
			c-1.793,0-3.246,1.455-3.246,3.249C1195.715,342.768,1197.168,344.223,1198.961,344.223z"/>
	</g>
	<g>
		<path fill="#FFFFFF" d="M1198.961,365.875h81.198c1.794,0,3.247-1.456,3.247-3.25c0-1.793-1.453-3.248-3.247-3.248h-81.198
			c-1.793,0-3.246,1.455-3.246,3.248C1195.715,364.419,1197.168,365.875,1198.961,365.875z"/>
	</g>
	<g>
		<path fill="#FFFFFF" d="M1268.251,387.527h11.908c1.794,0,3.247-1.456,3.247-3.25c0-1.794-1.453-3.249-3.247-3.249h-11.908
			c-1.794,0-3.249,1.455-3.249,3.249C1265.002,386.071,1266.457,387.527,1268.251,387.527z"/>
	</g>
	<g>
		<path fill="#FFFFFF" d="M1241.185,387.527h11.909c1.793,0,3.246-1.456,3.246-3.25c0-1.794-1.453-3.249-3.246-3.249h-11.909
			c-1.794,0-3.249,1.455-3.249,3.249C1237.936,386.071,1239.391,387.527,1241.185,387.527z"/>
	</g>
	<g>
		<path fill="#FFFFFF" d="M1198.961,387.527h27.066c1.793,0,3.249-1.456,3.249-3.25c0-1.794-1.456-3.249-3.249-3.249h-27.066
			c-1.793,0-3.246,1.455-3.246,3.249C1195.715,386.071,1197.168,387.527,1198.961,387.527z"/>
	</g>
</g>
<path fill="#FFDFB7" d="M1167.819,425.62h-87.657c-8.621,0-15.608,6.989-15.608,15.608v50.548c0,8.236,6.38,14.965,14.466,15.551
	l-18.075,29.619l47.637-29.56h59.238c8.62,0,15.608-6.989,15.608-15.61v-50.548C1183.428,432.608,1176.439,425.62,1167.819,425.62z"
	/>
<g>
	<circle fill="#FFFFFF" cx="1123.992" cy="454.238" r="10.377"/>
	<path fill="#FFFFFF" d="M1148.521,489.146h-49.061l0,0c0-8.684,7.039-15.724,15.725-15.724h17.61
		C1141.48,473.422,1148.521,480.462,1148.521,489.146L1148.521,489.146z"/>
</g>
<g>
	<path fill="#FCD69E" d="M1062.011,343.415c-2.901,0-5.81-0.297-8.637-0.879c-1.161-0.241-1.905-1.375-1.667-2.531
		c0.24-1.166,1.397-1.876,2.531-1.667c4.404,0.91,9.042,1.032,13.449,0.373c1.172-0.163,2.26,0.635,2.438,1.803
		c0.174,1.172-0.631,2.26-1.804,2.438C1066.255,343.257,1064.131,343.415,1062.011,343.415z M1081.458,338.411
		c-0.757,0-1.485-0.401-1.881-1.105c-0.571-1.036-0.194-2.34,0.838-2.916c3.961-2.189,7.468-5.045,10.437-8.487
		c0.771-0.896,2.127-0.994,3.02-0.223c0.896,0.77,0.998,2.124,0.223,3.019c-3.295,3.826-7.199,7.002-11.6,9.442
		C1082.161,338.324,1081.807,338.411,1081.458,338.411z M1040.624,337.261c-0.387,0-0.783-0.105-1.136-0.329
		c-4.261-2.682-7.981-6.07-11.06-10.07c-0.724-0.938-0.548-2.284,0.39-3.006c0.941-0.719,2.287-0.544,3.006,0.39
		c2.769,3.599,6.115,6.646,9.943,9.059c1.006,0.631,1.305,1.953,0.675,2.954C1042.034,336.908,1041.337,337.261,1040.624,337.261z
		 M1099.699,317.213c-0.249,0-0.5-0.045-0.747-0.136c-1.108-0.412-1.675-1.646-1.263-2.754c1.568-4.227,2.368-8.679,2.368-13.237
		c0-1.182,0.959-2.141,2.142-2.141c1.181,0,2.141,0.959,2.141,2.141c0,5.067-0.886,10.025-2.633,14.729
		C1101.386,316.677,1100.566,317.213,1099.699,317.213z M1023.602,315.086c-0.917,0-1.765-0.592-2.047-1.514
		c-1.241-4.027-1.869-8.225-1.872-12.483c0-0.798,0.021-1.586,0.067-2.371c0.065-1.182,1.139-2.064,2.258-2.016
		c1.18,0.066,2.086,1.078,2.015,2.26c-0.036,0.701-0.058,1.412-0.058,2.123c0.004,3.832,0.572,7.608,1.685,11.225
		c0.348,1.13-0.287,2.329-1.417,2.678C1024.022,315.055,1023.812,315.086,1023.602,315.086z M1101.02,293.538
		c-0.962,0-1.838-0.652-2.078-1.629c-1.091-4.397-2.939-8.522-5.503-12.268c-0.668-0.976-0.418-2.312,0.558-2.978
		c0.974-0.676,2.309-0.422,2.979,0.558c2.853,4.17,4.913,8.764,6.124,13.655c0.285,1.151-0.416,2.312-1.563,2.595
		C1101.362,293.516,1101.188,293.538,1101.02,293.538z M1025.164,287.163c-0.285,0-0.579-0.059-0.858-0.181
		c-1.083-0.475-1.579-1.737-1.104-2.821c2.011-4.614,4.812-8.801,8.318-12.435c0.818-0.861,2.179-0.879,3.028-0.056
		c0.854,0.82,0.878,2.177,0.056,3.027c-3.152,3.27-5.667,7.029-7.477,11.179C1026.775,286.682,1025.99,287.163,1025.164,287.163z
		 M1085.245,270.436c-0.431,0-0.862-0.125-1.238-0.394c-3.692-2.625-7.786-4.55-12.163-5.719c-1.144-0.307-1.823-1.482-1.52-2.622
		c0.311-1.141,1.471-1.824,2.622-1.52c4.875,1.3,9.432,3.445,13.542,6.367c0.967,0.687,1.189,2.022,0.506,2.988
		C1086.576,270.126,1085.917,270.436,1085.245,270.436z M1044.558,267.022c-0.794,0-1.558-0.446-1.927-1.213
		c-0.517-1.067-0.071-2.347,0.996-2.859c4.533-2.19,9.384-3.536,14.416-4.006c1.14-0.108,2.221,0.756,2.332,1.936
		c0.109,1.178-0.756,2.221-1.935,2.332c-4.52,0.423-8.878,1.632-12.95,3.595C1045.189,266.953,1044.871,267.022,1044.558,267.022z"
		/>
</g>
<path fill="#FCD69E" d="M1062.011,280.738c-15.51,0-28.082,8.312-28.082,18.566c0,0.018,0,0.035,0,0.053
	c0.012,2.677,2.123,4.511,4.099,3.668l7.371-3.146c1.772-0.757,2.635-3.34,1.838-5.516l-0.907-2.472c0,0,13.546,2.414,31.26,0
	l-0.915,3.173c-0.577,2.009,0.173,4.248,1.707,5.085l7.29,3.979c1.774,0.968,3.842-0.331,4.249-2.752
	c0.115-0.681,0.174-1.372,0.174-2.072C1090.094,289.05,1077.521,280.738,1062.011,280.738z"/>
<path fill="#FDE6C5" d="M1081.462,321.436h-38.923l5.769-18.07c1.08-3.388,4.228-5.688,7.785-5.688h11.816
	c3.557,0,6.704,2.3,7.787,5.688L1081.462,321.436z"/>
<g>
	<path fill="#FFDFB7" d="M1312.873,563.526c-2.915,0-5.821-0.297-8.647-0.883c-1.157-0.243-1.903-1.377-1.663-2.535
		c0.244-1.157,1.395-1.887,2.535-1.664c4.391,0.919,9.056,1.036,13.445,0.374c1.172-0.159,2.26,0.631,2.438,1.803
		c0.175,1.171-0.63,2.261-1.802,2.438C1317.12,563.366,1314.997,563.522,1312.873,563.526z M1332.318,558.526
		c-0.758,0-1.486-0.401-1.877-1.106c-0.575-1.036-0.203-2.341,0.833-2.911c3.961-2.196,7.473-5.052,10.437-8.49
		c0.771-0.896,2.122-0.999,3.02-0.225c0.896,0.771,0.997,2.124,0.223,3.021c-3.292,3.822-7.196,6.999-11.6,9.439
		C1333.021,558.438,1332.666,558.526,1332.318,558.526z M1291.488,557.372c-0.388,0-0.785-0.106-1.137-0.329
		c-4.262-2.685-7.982-6.074-11.058-10.07c-0.722-0.938-0.547-2.283,0.391-3.006c0.941-0.718,2.284-0.544,3.006,0.392
		c2.765,3.598,6.111,6.647,9.942,9.059c1.003,0.632,1.303,1.952,0.672,2.954C1292.897,557.02,1292.199,557.372,1291.488,557.372z
		 M1350.557,537.328c-0.246,0-0.497-0.045-0.746-0.136c-1.107-0.412-1.673-1.646-1.262-2.753c1.568-4.227,2.367-8.68,2.367-13.236
		c0-1.183,0.959-2.142,2.141-2.142c1.184,0,2.143,0.959,2.143,2.142c0,5.066-0.887,10.025-2.634,14.729
		C1352.246,536.795,1351.425,537.328,1350.557,537.328z M1274.458,535.194c-0.917,0-1.764-0.593-2.048-1.513
		c-1.24-4.027-1.868-8.225-1.868-12.479c0-0.796,0.021-1.583,0.065-2.368c0.066-1.183,1.234-2.083,2.257-2.02
		c1.182,0.067,2.085,1.077,2.019,2.255c-0.038,0.709-0.06,1.42-0.06,2.132c0,3.825,0.565,7.601,1.681,11.217
		c0.35,1.129-0.285,2.329-1.414,2.678C1274.881,535.164,1274.666,535.194,1274.458,535.194z M1351.886,513.652
		c-0.962,0-1.837-0.653-2.077-1.628c-1.093-4.395-2.944-8.521-5.504-12.265c-0.669-0.976-0.418-2.313,0.559-2.979
		c0.977-0.675,2.309-0.418,2.977,0.558c2.853,4.167,4.914,8.764,6.125,13.651c0.284,1.148-0.416,2.313-1.563,2.595
		C1352.228,513.631,1352.053,513.652,1351.886,513.652z M1276.026,507.274c-0.286,0-0.578-0.06-0.857-0.181
		c-1.084-0.475-1.58-1.736-1.104-2.821c2.019-4.617,4.819-8.801,8.323-12.435c0.815-0.865,2.176-0.878,3.025-0.056
		c0.855,0.82,0.879,2.176,0.057,3.028c-3.147,3.267-5.666,7.03-7.48,11.178C1277.637,506.794,1276.85,507.274,1276.026,507.274z
		 M1336.111,490.558c-0.428,0-0.861-0.125-1.239-0.394c-3.698-2.632-7.791-4.559-12.162-5.722c-1.144-0.307-1.823-1.482-1.521-2.623
		c0.308-1.141,1.473-1.811,2.623-1.521c4.868,1.302,9.426,3.446,13.543,6.372c0.966,0.687,1.188,2.022,0.506,2.988
		C1337.443,490.248,1336.784,490.558,1336.111,490.558z M1295.426,487.13c-0.796,0-1.559-0.446-1.93-1.213
		c-0.516-1.066-0.069-2.347,0.998-2.859c4.537-2.191,9.39-3.537,14.418-4.003c1.206-0.109,2.225,0.763,2.333,1.934
		c0.107,1.18-0.76,2.226-1.936,2.333c-4.518,0.419-8.877,1.625-12.954,3.591C1296.056,487.061,1295.739,487.13,1295.426,487.13z"/>
</g>
<rect x="1287.626" y="513.578" fill="#FCDEB2" width="49.819" height="28.251"/>
<g>
	<path fill="#FFFFFF" stroke="#FDCE77" stroke-miterlimit="10" d="M1330.907,511.403v-3.457c0-2.545,2.063-4.608,4.606-4.608l0,0
		c2.546,0,4.609,2.063,4.609,4.608v5.732h-9.216"/>
	<path fill="#FFFFFF" stroke="#FDCE77" stroke-miterlimit="10" d="M1330.997,507.879v29.363h-33.966v-29.363
		c0-2.544,2.063-4.607,4.607-4.607h33.584l-0.934,0.193C1332.386,504.033,1330.997,505.793,1330.997,507.879z"/>
</g>
<g>
	<rect x="1299.145" y="508.053" fill="#FFDFB7" width="7.53" height="7.732"/>
	<g>
		<g>
			<line fill="#FFDFB7" x1="1308.982" y1="508.009" x2="1328.129" y2="508.009"/>
			<line fill="#FFDFB7" x1="1308.982" y1="510.613" x2="1328.129" y2="510.613"/>
			<line fill="#FFDFB7" x1="1308.982" y1="513.217" x2="1328.129" y2="513.217"/>
			<line fill="#FFDFB7" x1="1309.163" y1="515.822" x2="1328.309" y2="515.822"/>
		</g>
		<line fill="#FFDFB7" x1="1299.145" y1="518.39" x2="1328.129" y2="518.39"/>
		<line fill="#FFDFB7" x1="1299.145" y1="520.992" x2="1328.129" y2="520.992"/>
		<line fill="#FFDFB7" x1="1299.145" y1="523.539" x2="1328.129" y2="523.539"/>
		<line fill="#FFDFB7" x1="1299.145" y1="526.143" x2="1313.23" y2="526.143"/>
	</g>
</g>
<polygon fill="#FFDFB7" points="1325.207,541.829 1287.626,541.829 1287.626,513.578 "/>
<polygon fill="#FFDFB7" points="1299.865,541.829 1337.445,541.829 1337.445,513.578 "/>
<path fill="#FFDFB7" d="M1337.445,541.829h-24.91h-24.909l22.375-11.95c1.524-1.057,3.545-1.057,5.069,0L1337.445,541.829z"/>
</svg>
