<?xml version="1.0" encoding="utf-8"?>
<!-- Generator: Adobe Illustrator 16.0.2, SVG Export Plug-In . SVG Version: 6.00 Build 0)  -->
<!DOCTYPE svg PUBLIC "-//W3C//DTD SVG 1.1//EN" "http://www.w3.org/Graphics/SVG/1.1/DTD/svg11.dtd">
<svg version="1.1" id="Layer_1" xmlns="http://www.w3.org/2000/svg" xmlns:xlink="http://www.w3.org/1999/xlink" x="0px" y="0px"
	 width="504px" height="288px" viewBox="0 0 504 288" enable-background="new 0 0 504 288" xml:space="preserve">
<radialGradient id="SVGID_1_" cx="252" cy="144" r="275.979" gradientUnits="userSpaceOnUse">
	<stop  offset="0.5965" style="stop-color:#96C2BB"/>
	<stop  offset="1" style="stop-color:#6BB3A7"/>
</radialGradient>
<rect fill="url(#SVGID_1_)" width="504" height="288"/>
<g>
	<radialGradient id="SVGID_2_" cx="252.5913" cy="146.2188" r="70.0122" gradientUnits="userSpaceOnUse">
		<stop  offset="0" style="stop-color:#A9DBD4"/>
		<stop  offset="0.0997" style="stop-color:#A0CFC8"/>
		<stop  offset="0.2813" style="stop-color:#86AEA9"/>
		<stop  offset="0.5244" style="stop-color:#5E7975"/>
		<stop  offset="0.8163" style="stop-color:#26312F"/>
		<stop  offset="1" style="stop-color:#000000"/>
	</radialGradient>
	<path fill="url(#SVGID_2_)" d="M290.292,146.217c-0.278,0-0.54,0.138-0.698,0.367l-2.838,4.147l-3.355-6.062
		c-0.164-0.297-0.497-0.468-0.827-0.432c-0.338,0.035-0.622,0.269-0.722,0.593l-2.494,8.116l-2.584-15.209
		c-0.066-0.395-0.402-0.689-0.803-0.704c-0.397-0.013-0.757,0.254-0.853,0.644l-5.382,21.929l-3.757-30.471
		c-0.052-0.423-0.411-0.741-0.837-0.742c-0.001,0-0.002,0-0.002,0c-0.426,0-0.785,0.315-0.84,0.737l-7.168,55.442l-7.951-89.01
		c-0.038-0.426-0.387-0.755-0.813-0.771c-0.422-0.005-0.797,0.291-0.865,0.712l-10.285,64.366l-3.702-25.473
		c-0.06-0.412-0.41-0.718-0.826-0.724c-0.004,0-0.008,0-0.012,0c-0.411,0-0.763,0.295-0.833,0.701l-3.417,19.631l-2.476-14.588
		c-0.06-0.35-0.332-0.626-0.682-0.691c-0.35-0.063-0.703,0.099-0.882,0.405l-4.15,7.084h-40.994c0.181,0.562,0.372,1.127,0.56,1.691
		h40.919c0.301,0,0.578-0.159,0.729-0.418l3.221-5.497l2.911,17.148c0.069,0.406,0.42,0.704,0.833,0.705c0,0,0.001,0,0.002,0
		c0.411,0,0.763-0.296,0.833-0.701l3.352-19.26l3.738,25.717c0.06,0.413,0.413,0.722,0.831,0.724c0.002,0,0.004,0,0.006,0
		c0.416,0,0.77-0.302,0.835-0.712l10.087-63.127l8.035,89.95c0.039,0.43,0.395,0.762,0.826,0.771c0.006,0,0.012,0,0.018,0
		c0.424,0,0.783-0.315,0.839-0.737l7.301-56.477l3.5,28.391c0.05,0.405,0.383,0.717,0.79,0.741c0.416,0.024,0.773-0.247,0.871-0.643
		l5.508-22.439l2.496,14.699c0.066,0.386,0.389,0.677,0.779,0.702c0.402,0.028,0.75-0.221,0.865-0.596l2.955-9.618l3.055,5.52
		c0.143,0.257,0.408,0.421,0.701,0.436c0.296,0.005,0.572-0.125,0.737-0.367l3.36-4.91h33.457c0.189-0.564,0.38-1.13,0.561-1.691
		H290.292z"/>
</g>
<g>
	<defs>
		<rect id="SVGID_3_" width="504" height="288"/>
	</defs>
	<clipPath id="SVGID_4_">
		<use xlink:href="#SVGID_3_"  overflow="visible"/>
	</clipPath>
	<g clip-path="url(#SVGID_4_)">
		<polygon opacity="0.9" fill="#273332" points="557.025,200.343 538.927,200.343 538.927,182.245 520.922,182.245 520.922,200.343 
			502.824,200.343 502.824,218.348 520.922,218.348 520.922,236.445 538.927,236.445 538.927,218.348 557.025,218.348 		"/>
		<polygon opacity="0.2" fill="#273332" points="336.347,138.404 331.604,138.404 331.604,133.661 326.885,133.661 326.885,138.404 
			322.143,138.404 322.143,143.123 326.885,143.123 326.885,147.865 331.604,147.865 331.604,143.123 336.347,143.123 		"/>
		<polygon opacity="0.68" fill="#273332" points="429.641,88.311 426.055,88.311 426.055,84.725 422.488,84.725 422.488,88.311 
			418.902,88.311 418.902,91.878 422.488,91.878 422.488,95.463 426.055,95.463 426.055,91.878 429.641,91.878 		"/>
		<polygon opacity="0.93" fill="#273332" points="351.381,125.064 348.679,125.064 348.679,122.363 345.99,122.363 345.99,125.064 
			343.289,125.064 343.289,127.752 345.99,127.752 345.99,130.453 348.679,130.453 348.679,127.752 351.381,127.752 		"/>
		<polygon opacity="0.68" fill="#273332" points="419.113,222.238 412.043,222.238 412.043,215.169 405.01,215.169 405.01,222.238 
			397.939,222.238 397.939,229.271 405.01,229.271 405.01,236.342 412.043,236.342 412.043,229.271 419.113,229.271 		"/>
		<polygon opacity="0.79" fill="#273332" points="466.902,224.091 464.594,224.091 464.594,221.783 462.299,221.783 
			462.299,224.091 459.99,224.091 459.99,226.387 462.299,226.387 462.299,228.694 464.594,228.694 464.594,226.387 
			466.902,226.387 		"/>
		<polygon opacity="0.98" fill="#273332" points="554.276,142.092 549.947,142.092 549.947,137.763 545.641,137.763 
			545.641,142.092 541.312,142.092 541.312,146.398 545.641,146.398 545.641,150.729 549.947,150.729 549.947,146.398 
			554.276,146.398 		"/>
		<polygon opacity="0.9" fill="#273332" points="488.657,222.545 485.598,222.545 485.598,219.485 482.553,219.485 482.553,222.545 
			479.493,222.545 479.493,225.589 482.553,225.589 482.553,228.648 485.598,228.648 485.598,225.589 488.657,225.589 		"/>
		<polygon opacity="0.54" fill="#273332" points="515.725,64.431 509.039,64.431 509.039,57.746 502.389,57.746 502.389,64.431 
			495.704,64.431 495.704,71.081 502.389,71.081 502.389,77.766 509.039,77.766 509.039,71.081 515.725,71.081 		"/>
		<polygon opacity="0.99" fill="#273332" points="537.106,164.042 534.311,164.042 534.311,161.246 531.529,161.246 
			531.529,164.042 528.734,164.042 528.734,166.823 531.529,166.823 531.529,169.619 534.311,169.619 534.311,166.823 
			537.106,166.823 		"/>
		<polygon opacity="0.23" fill="#273332" points="520.588,118.729 504.566,118.729 504.566,102.707 488.627,102.707 
			488.627,118.729 472.604,118.729 472.604,134.669 488.627,134.669 488.627,150.691 504.566,150.691 504.566,134.669 
			520.588,134.669 		"/>
		<polygon opacity="0.81" fill="#273332" points="348.857,159.655 342.432,159.655 342.432,153.229 336.037,153.229 
			336.037,159.655 329.61,159.655 329.61,166.049 336.037,166.049 336.037,172.476 342.432,172.476 342.432,166.049 
			348.857,166.049 		"/>
		<polygon opacity="0.39" fill="#273332" points="478.378,126.935 460.128,126.935 460.128,108.685 441.973,108.685 
			441.973,126.935 423.723,126.935 423.723,145.091 441.973,145.091 441.973,163.341 460.128,163.341 460.128,145.091 
			478.378,145.091 		"/>
		<polygon opacity="0.78" fill="#273332" points="499.365,176.969 484.243,176.969 484.243,161.847 469.199,161.847 
			469.199,176.969 454.078,176.969 454.078,192.012 469.199,192.012 469.199,207.134 484.243,207.134 484.243,192.012 
			499.365,192.012 		"/>
		<polygon opacity="0.27" fill="#273332" points="354.527,100.932 351.889,100.932 351.889,98.292 349.262,98.292 349.262,100.932 
			346.621,100.932 346.621,103.559 349.262,103.559 349.262,106.198 351.889,106.198 351.889,103.559 354.527,103.559 		"/>
		<polygon opacity="0.47" fill="#273332" points="387.541,228.496 385.119,228.496 385.119,226.074 382.709,226.074 
			382.709,228.496 380.287,228.496 380.287,230.906 382.709,230.906 382.709,233.328 385.119,233.328 385.119,230.906 
			387.541,230.906 		"/>
		<polygon opacity="0.8" fill="#273332" points="413.852,61.781 408.677,61.781 408.677,56.606 403.529,56.606 403.529,61.781 
			398.355,61.781 398.355,66.928 403.529,66.928 403.529,72.102 408.677,72.102 408.677,66.928 413.852,66.928 		"/>
		<polygon opacity="0.32" fill="#273332" points="546.198,110.641 541.232,110.641 541.232,105.676 536.293,105.676 
			536.293,110.641 531.328,110.641 531.328,115.581 536.293,115.581 536.293,120.546 541.232,120.546 541.232,115.581 
			546.198,115.581 		"/>
		<polygon opacity="0.67" fill="#273332" points="473.871,79.07 469.969,79.07 469.969,75.167 466.085,75.167 466.085,79.07 
			462.182,79.07 462.182,82.954 466.085,82.954 466.085,86.857 469.969,86.857 469.969,82.954 473.871,82.954 		"/>
		<polygon opacity="0.6" fill="#273332" points="456.845,92.684 454.465,92.684 454.465,90.305 452.1,90.305 452.1,92.684 
			449.721,92.684 449.721,95.051 452.1,95.051 452.1,97.43 454.465,97.43 454.465,95.051 456.845,95.051 		"/>
		<polygon opacity="0.52" fill="#273332" points="381.188,74.306 377.859,74.306 377.859,70.978 374.549,70.978 374.549,74.306 
			371.221,74.306 371.221,77.616 374.549,77.616 374.549,80.944 377.859,80.944 377.859,77.616 381.188,77.616 		"/>
		<polygon opacity="0.89" fill="#273332" points="378.997,214.693 375.762,214.693 375.762,211.459 372.544,211.459 
			372.544,214.693 369.31,214.693 369.31,217.912 372.544,217.912 372.544,221.146 375.762,221.146 375.762,217.912 
			378.997,217.912 		"/>
		<polygon opacity="0.42" fill="#273332" points="306.123,107.074 296.898,107.074 296.898,97.849 287.721,97.849 287.721,107.074 
			278.495,107.074 278.495,116.251 287.721,116.251 287.721,125.477 296.898,125.477 296.898,116.251 306.123,116.251 		"/>
		<polygon opacity="0.67" fill="#273332" points="445.324,56.767 442.262,56.767 442.262,53.705 439.216,53.705 439.216,56.767 
			436.154,56.767 436.154,59.813 439.216,59.813 439.216,62.875 442.262,62.875 442.262,59.813 445.324,59.813 		"/>
		<polygon opacity="0.94" fill="#273332" points="402.998,116.739 390.615,116.739 390.615,104.356 378.295,104.356 
			378.295,116.739 365.912,116.739 365.912,129.059 378.295,129.059 378.295,141.442 390.615,141.442 390.615,129.059 
			402.998,129.059 		"/>
		<polygon opacity="0.62" fill="#273332" points="548.605,59.47 545.766,59.47 545.766,56.63 542.941,56.63 542.941,59.47 
			540.102,59.47 540.102,62.295 542.941,62.295 542.941,65.135 545.766,65.135 545.766,62.295 548.605,62.295 		"/>
		<polygon opacity="0.85" fill="#273332" points="326.631,230.47 321.779,230.47 321.779,225.619 316.954,225.619 316.954,230.47 
			312.104,230.47 312.104,235.296 316.954,235.296 316.954,240.146 321.779,240.146 321.779,235.296 326.631,235.296 		"/>
		<polygon opacity="0.58" fill="#273332" points="332.545,63.426 328.205,63.426 328.205,59.086 323.889,59.086 323.889,63.426 
			319.549,63.426 319.549,67.743 323.889,67.743 323.889,72.083 328.205,72.083 328.205,67.743 332.545,67.743 		"/>
		<polygon opacity="0.38" fill="#273332" points="438.67,153.364 420.861,153.364 420.861,135.555 403.144,135.555 403.144,153.364 
			385.335,153.364 385.335,171.081 403.144,171.081 403.144,188.891 420.861,188.891 420.861,171.081 438.67,171.081 		"/>
	</g>
	<g clip-path="url(#SVGID_4_)">
		<polygon opacity="0.9" fill="#273332" points="-52.235,91.736 -34.137,91.736 -34.137,109.834 -16.133,109.834 -16.133,91.736 
			1.966,91.736 1.966,73.732 -16.133,73.732 -16.133,55.634 -34.137,55.634 -34.137,73.732 -52.235,73.732 		"/>
		<polygon opacity="0.2" fill="#273332" points="168.443,153.675 173.187,153.675 173.187,158.418 177.905,158.418 177.905,153.675 
			182.647,153.675 182.647,148.957 177.905,148.957 177.905,144.214 173.187,144.214 173.187,148.957 168.443,148.957 		"/>
		<polygon opacity="0.68" fill="#273332" points="75.149,203.769 78.734,203.769 78.734,207.354 82.302,207.354 82.302,203.769 
			85.888,203.769 85.888,200.201 82.302,200.201 82.302,196.615 78.734,196.615 78.734,200.201 75.149,200.201 		"/>
		<polygon opacity="0.93" fill="#273332" points="153.41,167.015 156.111,167.015 156.111,169.716 158.799,169.716 158.799,167.015 
			161.5,167.015 161.5,164.327 158.799,164.327 158.799,161.626 156.111,161.626 156.111,164.327 153.41,164.327 		"/>
		<polygon opacity="0.68" fill="#273332" points="85.677,69.841 92.747,69.841 92.747,76.911 99.78,76.911 99.78,69.841 
			106.85,69.841 106.85,62.807 99.78,62.807 99.78,55.738 92.747,55.738 92.747,62.807 85.677,62.807 		"/>
		<polygon opacity="0.79" fill="#273332" points="37.888,67.988 40.196,67.988 40.196,70.296 42.492,70.296 42.492,67.988 
			44.799,67.988 44.799,65.692 42.492,65.692 42.492,63.385 40.196,63.385 40.196,65.692 37.888,65.692 		"/>
		<polygon opacity="0.98" fill="#273332" points="-49.486,149.987 -45.157,149.987 -45.157,154.316 -40.851,154.316 
			-40.851,149.987 -36.521,149.987 -36.521,145.68 -40.851,145.68 -40.851,141.351 -45.157,141.351 -45.157,145.68 -49.486,145.68 
					"/>
		<polygon opacity="0.9" fill="#273332" points="16.133,69.534 19.192,69.534 19.192,72.594 22.237,72.594 22.237,69.534 
			25.297,69.534 25.297,66.49 22.237,66.49 22.237,63.43 19.192,63.43 19.192,66.49 16.133,66.49 		"/>
		<polygon opacity="0.54" fill="#273332" points="-10.935,227.648 -4.25,227.648 -4.25,234.334 2.401,234.334 2.401,227.648 
			9.086,227.648 9.086,220.998 2.401,220.998 2.401,214.313 -4.25,214.313 -4.25,220.998 -10.935,220.998 		"/>
		<polygon opacity="0.99" fill="#273332" points="-32.316,128.037 -29.521,128.037 -29.521,130.833 -26.739,130.833 
			-26.739,128.037 -23.943,128.037 -23.943,125.256 -26.739,125.256 -26.739,122.46 -29.521,122.46 -29.521,125.256 
			-32.316,125.256 		"/>
		<polygon opacity="0.23" fill="#273332" points="-15.799,173.35 0.224,173.35 0.224,189.372 16.163,189.372 16.163,173.35 
			32.186,173.35 32.186,157.41 16.163,157.41 16.163,141.388 0.224,141.388 0.224,157.41 -15.799,157.41 		"/>
		<polygon opacity="0.81" fill="#273332" points="155.932,132.424 162.359,132.424 162.359,138.851 168.753,138.851 
			168.753,132.424 175.18,132.424 175.18,126.03 168.753,126.03 168.753,119.604 162.359,119.604 162.359,126.03 155.932,126.03 		
			"/>
		<polygon opacity="0.39" fill="#273332" points="26.412,165.145 44.662,165.145 44.662,183.395 62.818,183.395 62.818,165.145 
			81.067,165.145 81.067,146.988 62.818,146.988 62.818,128.738 44.662,128.738 44.662,146.988 26.412,146.988 		"/>
		<polygon opacity="0.78" fill="#273332" points="5.425,115.111 20.547,115.111 20.547,130.232 35.591,130.232 35.591,115.111 
			50.712,115.111 50.712,100.067 35.591,100.067 35.591,84.946 20.547,84.946 20.547,100.067 5.425,100.067 		"/>
		<polygon opacity="0.27" fill="#273332" points="150.263,191.146 152.902,191.146 152.902,193.786 155.528,193.786 
			155.528,191.146 158.168,191.146 158.168,188.521 155.528,188.521 155.528,185.881 152.902,185.881 152.902,188.521 
			150.263,188.521 		"/>
		<polygon opacity="0.47" fill="#273332" points="117.249,63.583 119.671,63.583 119.671,66.005 122.081,66.005 122.081,63.583 
			124.503,63.583 124.503,61.173 122.081,61.173 122.081,58.75 119.671,58.75 119.671,61.173 117.249,61.173 		"/>
		<polygon opacity="0.8" fill="#273332" points="90.939,230.299 96.113,230.299 96.113,235.473 101.261,235.473 101.261,230.299 
			106.435,230.299 106.435,225.151 101.261,225.151 101.261,219.978 96.113,219.978 96.113,225.151 90.939,225.151 		"/>
		<polygon opacity="0.32" fill="#273332" points="-41.408,181.438 -36.442,181.438 -36.442,186.403 -31.503,186.403 
			-31.503,181.438 -26.538,181.438 -26.538,176.499 -31.503,176.499 -31.503,171.533 -36.442,171.533 -36.442,176.499 
			-41.408,176.499 		"/>
		<polygon opacity="0.67" fill="#273332" points="30.918,213.009 34.822,213.009 34.822,216.912 38.705,216.912 38.705,213.009 
			42.608,213.009 42.608,209.125 38.705,209.125 38.705,205.222 34.822,205.222 34.822,209.125 30.918,209.125 		"/>
		<polygon opacity="0.6" fill="#273332" points="47.946,199.395 50.324,199.395 50.324,201.773 52.691,201.773 52.691,199.395 
			55.07,199.395 55.07,197.028 52.691,197.028 52.691,194.649 50.324,194.649 50.324,197.028 47.946,197.028 		"/>
		<polygon opacity="0.52" fill="#273332" points="123.602,217.773 126.93,217.773 126.93,221.102 130.241,221.102 130.241,217.773 
			133.569,217.773 133.569,214.463 130.241,214.463 130.241,211.135 126.93,211.135 126.93,214.463 123.602,214.463 		"/>
		<polygon opacity="0.89" fill="#273332" points="125.793,77.386 129.028,77.386 129.028,80.62 132.246,80.62 132.246,77.386 
			135.481,77.386 135.481,74.167 132.246,74.167 132.246,70.933 129.028,70.933 129.028,74.167 125.793,74.167 		"/>
		<polygon opacity="0.42" fill="#273332" points="198.667,185.005 207.892,185.005 207.892,194.23 217.07,194.23 217.07,185.005 
			226.295,185.005 226.295,175.827 217.07,175.827 217.07,166.603 207.892,166.603 207.892,175.827 198.667,175.827 		"/>
		<polygon opacity="0.67" fill="#273332" points="59.466,235.313 62.528,235.313 62.528,238.374 65.574,238.374 65.574,235.313 
			68.636,235.313 68.636,232.267 65.574,232.267 65.574,229.204 62.528,229.204 62.528,232.267 59.466,232.267 		"/>
		<polygon opacity="0.94" fill="#273332" points="101.792,175.34 114.175,175.34 114.175,187.723 126.495,187.723 126.495,175.34 
			138.878,175.34 138.878,163.021 126.495,163.021 126.495,150.638 114.175,150.638 114.175,163.021 101.792,163.021 		"/>
		<polygon opacity="0.62" fill="#273332" points="-43.816,232.609 -40.977,232.609 -40.977,235.449 -38.151,235.449 
			-38.151,232.609 -35.312,232.609 -35.312,229.784 -38.151,229.784 -38.151,226.944 -40.977,226.944 -40.977,229.784 
			-43.816,229.784 		"/>
		<polygon opacity="0.85" fill="#273332" points="178.159,61.609 183.011,61.609 183.011,66.46 187.836,66.46 187.836,61.609 
			192.688,61.609 192.688,56.784 187.836,56.784 187.836,51.933 183.011,51.933 183.011,56.784 178.159,56.784 		"/>
		<polygon opacity="0.58" fill="#273332" points="172.245,228.653 176.584,228.653 176.584,232.993 180.902,232.993 
			180.902,228.653 185.241,228.653 185.241,224.336 180.902,224.336 180.902,219.996 176.584,219.996 176.584,224.336 
			172.245,224.336 		"/>
		<polygon opacity="0.38" fill="#273332" points="66.12,138.715 83.929,138.715 83.929,156.524 101.646,156.524 101.646,138.715 
			119.455,138.715 119.455,120.998 101.646,120.998 101.646,103.188 83.929,103.188 83.929,120.998 66.12,120.998 		"/>
	</g>
</g>
</svg>
